<?xml version="1.0" standalone="no"?>
<!DOCTYPE svg PUBLIC "-//W3C//DTD SVG 20010904//EN"
 "http://www.w3.org/TR/2001/REC-SVG-20010904/DTD/svg10.dtd">
<svg version="1.0" xmlns="http://www.w3.org/2000/svg"
 width="512.000000pt" height="512.000000pt" viewBox="0 0 512.000000 512.000000"
 preserveAspectRatio="xMidYMid meet">
<metadata>
Created by potrace 1.14, written by Peter Selinger 2001-2017
</metadata>
<g transform="translate(0.000000,512.000000) scale(0.100000,-0.100000)"
fill="#000000" stroke="none">
<path d="M2476 4918 c1 -164 5 -213 19 -253 20 -59 72 -125 128 -166 74 -53
123 -61 406 -63 255 -2 294 -7 326 -40 68 -68 73 -178 12 -244 -54 -58 -18
-55 -822 -56 l-740 -1 -65 -31 c-291 -138 -264 -523 45 -640 11 -4 137 -8 281
-9 165 -2 274 -7 296 -14 43 -14 86 -58 101 -103 17 -47 16 -223 -1 -224 -6
-1 -45 -2 -85 -3 l-73 -1 1 -166 c0 -105 -3 -168 -10 -170 -5 -2 -260 -5 -565
-7 l-555 -3 -115 -31 c-424 -113 -802 -446 -967 -853 -39 -97 -36 -86 -65
-205 -31 -130 -31 -395 1 -545 122 -575 583 -1001 1166 -1078 101 -14 326 -7
423 12 163 33 304 87 457 177 172 100 280 133 452 138 180 5 347 -35 474 -114
103 -63 205 -112 310 -148 107 -37 117 -39 254 -62 78 -13 328 -13 390 -1 68
14 81 17 110 22 17 3 70 19 120 35 489 163 841 583 919 1094 18 115 14 356 -7
451 -34 152 -100 311 -183 441 -201 315 -541 567 -860 637 -38 9 -82 19 -99
23 -16 3 -275 8 -575 10 -300 2 -550 5 -555 7 -6 2 -10 67 -10 170 l1 166 -83
0 c-46 0 -83 3 -84 8 0 4 -2 52 -3 107 -3 116 -10 153 -41 215 -42 83 -134
155 -225 175 -19 5 -150 9 -290 10 -152 1 -265 6 -280 12 -28 12 -72 56 -89
90 -18 35 -13 114 8 149 11 18 36 45 57 60 l37 29 736 1 c793 1 789 1 867 54
246 170 192 531 -93 614 -40 11 -109 15 -302 15 -268 0 -294 4 -338 52 -43 47
-49 83 -48 277 l1 182 -86 0 -86 0 2 -202z"/>
</g>
</svg>
