<?xml version="1.0" standalone="no"?>
<!DOCTYPE svg PUBLIC "-//W3C//DTD SVG 20010904//EN"
 "http://www.w3.org/TR/2001/REC-SVG-20010904/DTD/svg10.dtd">
<svg version="1.0" xmlns="http://www.w3.org/2000/svg"
 width="512.000000pt" height="512.000000pt" viewBox="0 0 512.000000 512.000000"
 preserveAspectRatio="xMidYMid meet">
<metadata>
Created by potrace 1.14, written by Peter Selinger 2001-2017
</metadata>
<g transform="translate(0.000000,512.000000) scale(0.100000,-0.100000)"
fill="#000000" stroke="none">
<path d="M1725 5113 c-44 -9 -127 -58 -156 -91 -64 -72 -73 -110 -77 -292 -2
-91 -7 -168 -10 -172 -4 -4 -104 -32 -222 -63 -118 -31 -235 -64 -258 -73 -64
-25 -127 -84 -159 -152 l-28 -58 -60 132 c-32 72 -74 165 -93 206 -19 41 -44
98 -57 125 -84 189 -98 214 -130 230 -39 18 -59 19 -88 3 -33 -17 -40 -27 -71
-98 -16 -36 -41 -92 -56 -125 -39 -85 -84 -181 -110 -240 -46 -103 -69 -152
-101 -220 l-34 -70 -2 -1801 c-3 -1782 -3 -1802 17 -1860 42 -123 147 -231
263 -270 77 -27 215 -25 287 5 111 46 198 132 244 244 20 51 21 66 24 614 3
627 5 610 -63 634 l-35 13 0 96 0 95 39 16 c80 34 78 151 -3 180 l-36 13 0 92
c0 88 1 92 23 98 13 3 34 15 48 27 l24 21 5 791 5 791 22 -85 c12 -46 45 -169
73 -274 28 -104 52 -197 55 -205 2 -8 13 -50 24 -92 50 -185 65 -242 107 -398
25 -91 61 -226 80 -300 19 -74 44 -164 54 -200 10 -36 32 -117 49 -180 16 -63
60 -225 98 -360 l67 -245 6 -425 5 -425 28 -57 c40 -82 124 -146 212 -162 15
-3 29 -7 31 -8 3 -4 21 -65 49 -173 46 -179 69 -231 122 -281 76 -72 198 -99
304 -68 29 9 60 17 68 19 15 3 278 73 736 196 121 32 281 75 355 95 74 19 158
42 185 50 83 23 282 77 353 94 23 6 90 24 148 40 l105 29 350 1 c326 1 354 3
397 21 69 30 127 82 156 141 l26 52 0 1719 0 1719 -453 453 c-249 250 -466
459 -481 465 -27 10 -2414 13 -2461 3z"/>
</g>
</svg>
